<svg class="link-icon" xmlns="http://www.w3.org/2000/svg" fill="none" viewBox="-0.5 -0.5 24.01 24.01" id="Link-Share-2--Streamline-Plump.svg" height="24.01" width="24.01"><desc>Link Share 2 Streamline Icon: https://streamlinehq.com</desc><g id="link-share-2--create-hyperlink-link-make-unlink-square"><path id="Union" fill="currentColor" fill-rule="evenodd" d="M20.22483125 7.56933125c0.9108125 0.8331537500000001 2.0881575000000003 0.38158250000000005 2.18690875 -0.84849375a41.854231250000005 41.854231250000005 0 0 0 0.10162750000000001 -1.76314125c0.058963125000000005 -1.5637212500000002 -0.04314375 -2.5847900000000004 -0.15819375000000002 -3.2127712500000003a1.330265625 1.330265625 0 0 0 -1.0900987500000001 -1.0900987500000001c-0.62798125 -0.11505000000000001 -1.6490500000000001 -0.21763625000000003 -3.2127712500000003 -0.15819375000000002a41.965925625000004 41.965925625000004 0 0 0 -1.7621825000000002 0.10162750000000001c-1.23007625 0.099230625 -1.68260625 1.276575625 -0.8494525 2.187388125a59.346625 59.346625 0 0 0 1.042640625 1.1097531250000001A555.0007206250001 555.0007206250001 0 0 0 10.0477 10.48584875c-0.45540625 0.47410187500000006 -0.643800625 1.166319375 -0.25886250000000005 1.698905a4.736225000000001 4.736225000000001 0 0 0 1.02682125 1.0301768750000002c0.5369000000000002 0.39021125 1.2367875000000002 0.19654375000000002 1.7123275000000002 -0.26749125000000007 1.221926875 -1.191246875 3.7659700000000003 -3.6768062500000003 6.5659993750000005 -6.441361875 0.43143750000000003 0.41561812500000006 0.8067881250000001 0.7670000000000001 1.1313250000000001 1.063733125ZM3.84746375 3.3268625000000007c1.3930637500000003 -0.10642125000000001 3.5114218750000004 -0.21092500000000003 6.459098750000001 -0.21092500000000003 0.79096875 0 1.5224950000000002 0.007670000000000001 2.19649625 0.020613125a0.7190625 0.7190625 0 0 1 0.499988125 1.2214475000000002 373.19919 373.19919 0 0 0 -1.8393618750000003 1.8940106250000002 0.7190625 0.7190625 0 0 1 -0.5206012500000001 0.22051250000000003c-0.11025625000000001 -0.0009587500000000001 -0.22290937500000005 -0.0009587500000000001 -0.33652125 -0.0009587500000000001 -1.987009375 0 -3.4793037500000006 0.061360000000000005 -4.529614375 0.13039000000000003 -0.866230625 0.057045625 -1.5148250000000003 0.70564 -1.571870625 1.5723500000000001 -0.06903000000000001 1.04983125 -0.13039000000000003 2.542125625 -0.13039000000000003 4.529135000000001 0 1.987009375 0.061360000000000005 3.4793037500000006 0.13039000000000003 4.529614375 0.057045625 0.866230625 0.70564 1.5148250000000003 1.5723500000000001 1.571870625 1.04983125 0.06903000000000001 2.542125625 0.13039000000000003 4.529135000000001 0.13039000000000003 1.987009375 0 3.4793037500000006 -0.061360000000000005 4.529614375 -0.13039000000000003 0.866230625 -0.057045625 1.5148250000000003 -0.70564 1.571870625 -1.5723500000000001 0.06903000000000001 -1.04983125 0.13039000000000003 -2.542125625 0.13039000000000003 -4.529135000000001 0 -0.1534 0 -0.30440312500000005 -0.0009587500000000001 -0.45205062500000004a0.7190625 0.7190625 0 0 1 0.21859500000000004 -0.5196425000000001 641.1161250000001 641.1161250000001 0 0 0 1.8935312500000003 -1.8422381250000002 0.7190625 0.7190625 0 0 1 1.2214475000000002 0.49950875000000006c0.014381250000000002 0.7061193750000001 0.023010000000000003 1.4764750000000002 0.023010000000000003 2.3144225000000005 0 2.9471975 -0.10450375 5.066035 -0.21092500000000003 6.459098750000001 -0.11984375000000001 1.5795406250000001 -1.337935625 2.7976325000000006 -2.9174762500000004 2.9179556250000003 -1.3930637500000003 0.10594187500000002 -3.5114218750000004 0.21044562500000003 -6.459098750000001 0.21044562500000003s-5.066035 -0.10450375 -6.459098750000001 -0.21092500000000003c-1.5795406250000001 -0.11984375000000001 -2.7976325000000006 -1.337935625 -2.9179556250000003 -2.9174762500000004C0.82356625 17.7694725 0.7190625 15.651114375000002 0.7190625 12.703437500000001c0 -2.9471975 0.10450375 -5.066035 0.21092500000000003 -6.459098750000001 0.11984375000000001 -1.5795406250000001 1.3374562500000002 -2.7976325000000006 2.916996875 -2.9174762500000004Z" clip-rule="evenodd" stroke-width="1"></path></g></svg>